<svg id="SvgjsSvg1016" width="288" height="288" xmlns="http://www.w3.org/2000/svg" version="1.1" xmlns:xlink="http://www.w3.org/1999/xlink" xmlns:svgjs="http://svgjs.com/svgjs"><defs id="SvgjsDefs1017"></defs><g id="SvgjsG1018"><svg xmlns="http://www.w3.org/2000/svg" viewBox="0 0 16 16" width="288" height="288"><g fill="#684656" class="color474747 svgShape" style="--darkreader-inline-fill: #533845;" data-darkreader-inline-fill=""><path style="marker: none; --darkreader-inline-color: #8691c5; --darkreader-inline-fill: #00b3cc;" d="M12.109 5c.62.75.995 1.71.995 2.76a4.344 4.344 0 01-4.344 4.344c-1.05 0-2.01-.376-2.76-.995A5.055 5.055 0 0010.932 15 5.068 5.068 0 0016 9.932 5.055 5.055 0 0012.109 5zM6.511 1.79c.4 0 .721.322.721.721a.72.72 0 01-.72.721.72.72 0 01-.722-.72c0-.4.322-.722.721-.722zm4 1.023a.697.697 0 110 1.398.697.697 0 01-.699-.7c0-.387.312-.698.7-.698zm-3 1.977c.4 0 .721.322.721.721a.72.72 0 01-.72.721.72.72 0 01-.722-.72c0-.4.322-.722.721-.722z" color="#bebebe" overflow="visible" fill="#00e0ff" class="color000 svgShape" data-darkreader-inline-color="" data-darkreader-inline-fill=""></path><path style="marker: none; --darkreader-inline-color: #a9b1d6; --darkreader-inline-fill: #00b3cc;" d="M3.505 7.505L2.76 5.25.505 4.505 2.76 3.76l.745-2.255.745 2.255 2.255.745-2.255.745z" color="#000" overflow="visible" fill="#00e0ff" class="color000 svgShape" data-darkreader-inline-color="" data-darkreader-inline-fill=""></path></g></svg></g></svg>